<svg width="200" height="200" viewBox="0 0 200 200" fill="none" xmlns="http://www.w3.org/2000/svg">
    <path d="M100 126C114.36 126 126 114.36 126 100C126 85.64 114.36 74 100 74C85.64 74 74 85.64 74 100C74 114.36 85.64 126 100 126ZM100 130C83.431 130 70 116.569 70 100C70 83.431 83.431 70 100 70C116.569 70 130 83.431 130 100C130 116.569 116.569 130 100 130ZM100 105C101.326 105 102.598 104.473 103.536 103.536C104.473 102.598 105 101.326 105 100C105 98.6739 104.473 97.4021 103.536 96.4645C102.598 95.5268 101.326 95 100 95C98.6739 95 97.4021 95.5268 96.4645 96.4645C95.5268 97.4021 95 98.6739 95 100C95 101.326 95.5268 102.598 96.4645 103.536C97.4021 104.473 98.6739 105 100 105V105ZM100 109C97.6131 109 95.3239 108.052 93.636 106.364C91.9482 104.676 91 102.387 91 100C91 97.6131 91.9482 95.3239 93.636 93.636C95.3239 91.9482 97.6131 91 100 91C102.387 91 104.676 91.9482 106.364 93.636C108.052 95.3239 109 97.6131 109 100C109 102.387 108.052 104.676 106.364 106.364C104.676 108.052 102.387 109 100 109V109Z" fill="#999999"/>
</svg>
