<svg width="200" height="200" viewBox="0 0 200 200" fill="none" xmlns="http://www.w3.org/2000/svg">
    <path d="M111 78.93V74H96C83.664 74 74 82.188 74 94C74 102.017 79.594 111.499 85.021 116.399L86 117.186V126H111V118.5L121.75 114L119.5 105.5L124.149 95.286L115.499 90.696L114.789 88.62C113.993 86.29 113.796 85.106 112.346 83.238L102 87V95H99.692C97.962 95.013 95 95.235 95 99C95 102.828 98.06 102.993 99.777 103H102V107H100C95.03 107 91 104.995 91 99C91 93.834 93.992 91.63 98 91.12V84.5L111 78.93ZM82 130V120.852C76.262 115.671 70 104.835 70 94C70 76 85 70 97 70H115V79.45C116.942 81.922 118.452 84.7046 119.467 87.68L130 94L124 106L127 117C127 117 119.619 119.834 115 122.068V130H82Z"
          fill="#999999"/>
</svg>
