<?xml version="1.0" encoding="UTF-8" standalone="no"?>
<svg
        xmlns:inkscape="http://www.inkscape.org/namespaces/inkscape"
        xmlns:sodipodi="http://sodipodi.sourceforge.net/DTD/sodipodi-0.dtd"
        version="1.1"
        id="Layer_1"
        x="0px"
        y="0px"
        viewBox="0 0 105.87652 105.65222"
        xml:space="preserve"
        width="105.87652"
        height="105.65222"
        xmlns="http://www.w3.org/2000/svg"
><defs
   id="defs11" />
    <sodipodi:namedview
            id="namedview9"
            pagecolor="#505050"
            bordercolor="#eeeeee"
            borderopacity="1"
            inkscape:pageshadow="0"
            inkscape:pageopacity="0"
            inkscape:pagecheckerboard="0"
            showgrid="false"
            inkscape:zoom="1.3918919"
            inkscape:cx="163.80583"
            inkscape:cy="202.96116"
            inkscape:window-width="1920"
            inkscape:window-height="1057"
            inkscape:window-x="1912"
            inkscape:window-y="-8"
            inkscape:window-maximized="1"
            inkscape:current-layer="Layer_1"/>
    <style
            type="text/css"
            id="style2">
	.st0{fill:#FCCA00;}
	.st1{fill:#FC3F1D;}
</style>

    <g
            id="g830"
            transform="translate(-356.42153,-0.3)"><path
     class="st0"
     d="m 377.8,10.5 c 7.8,-5.8 17.1,-9.3 26.8,-10.2 v 16 c -6.2,0.8 -12.2,3.2 -17.3,7 -6.4,4.7 -11.1,11.4 -13.4,19 -2.3,7.6 -2.1,15.7 0.5,23.2 2.7,7.5 7.7,13.9 14.3,18.3 6.6,4.4 14.4,6.6 22.4,6.2 7.9,-0.4 15.5,-3.3 21.7,-8.3 6.2,-5 10.5,-11.9 12.5,-19.6 1.4,-5.4 1.5,-10.9 0.4,-16.3 L 459.1,35 v -0.1 c 3.6,10 4.2,20.8 1.6,31.1 -2.8,11 -9,20.8 -17.8,28 -8.8,7.2 -19.7,11.3 -31,11.9 -11.3,0.5 -22.5,-2.6 -32,-8.9 -9.4,-6.3 -16.6,-15.5 -20.4,-26.2 -3.8,-10.7 -4.1,-22.3 -0.8,-33.2 3.3,-10.8 10,-20.4 19.1,-27.1 z"
     id="path4" />
        <path
                class="st1"
                d="m 448.9,17.9 0.1,0.1 -9,14.2 c -3.3,-4.8 -7.6,-8.9 -12.7,-11.7 V 53 c 0,9.9 -8.1,18 -18,18 -9.9,0 -18,-8.1 -18,-18 0,-9.9 8.1,-18 18,-18 3.7,0 7.2,1.1 10.1,3.1 V 1 c 11.6,2.3 22,8.4 29.5,16.9 z"
                id="path6"/></g>
</svg>
