<svg width="200" height="200" viewBox="0 0 200 200" fill="none" xmlns="http://www.w3.org/2000/svg">
    <g clip-path="url(#clip0_12_15)">
        <g clip-path="url(#clip1_12_15)">
            <path fill-rule="evenodd" clip-rule="evenodd"
                  d="M90 79L127 73V112C127 118 120.799 121 115 121C109.201 121 103 118 103 112C103 106 109.201 103 115 103C117.826 103 120.747 103.712 123 105.137V88.68L94 93.374V118C94 124 87.799 127 82 127C76.201 127 70 124 70 118C70 112 76.201 109 82 109C84.826 109 87.747 109.712 90 111.137V79ZM94 82.373V89.351L123 84.649V77.679L94 82.373ZM89.5 118C89.5 113.5 82 113.5 82 113.5C82 113.5 74.5 113.5 74.5 118C74.5 122.5 82 122.5 82 122.5C82 122.5 89.5 122.5 89.5 118ZM122.5 112C122.5 107.5 115 107.5 115 107.5C115 107.5 107.5 107.5 107.5 112C107.5 116.5 115 116.5 115 116.5C115 116.5 122.5 116.5 122.5 112Z"
                  fill="#999999"/>
        </g>
    </g>
    <defs>
        <clipPath id="clip0_12_15">
            <rect width="72" height="72" fill="white" transform="translate(64 64)"/>
        </clipPath>
        <clipPath id="clip1_12_15">
            <rect width="72" height="72" fill="white" transform="translate(64 64)"/>
        </clipPath>
    </defs>
</svg>
