<svg xmlns="http://www.w3.org/2000/svg" version="1.1" id="Layer_1" x="0px" y="0px" viewBox="0 0 742 106"
     style="enable-background:new 0 0 742 106;" xml:space="preserve">
<style type="text/css">
	.st0{fill:#FCCA00;}
	.st1{fill:#FC3F1D;}
	.st2{fill:#FFFFFF;}
</style>
    <path class="st0"
          d="M377.8,10.5c7.8-5.8,17.1-9.3,26.8-10.2v16c-6.2,0.8-12.2,3.2-17.3,7c-6.4,4.7-11.1,11.4-13.4,19  s-2.1,15.7,0.5,23.2c2.7,7.5,7.7,13.9,14.3,18.3c6.6,4.4,14.4,6.6,22.4,6.2c7.9-0.4,15.5-3.3,21.7-8.3c6.2-5,10.5-11.9,12.5-19.6  c1.4-5.4,1.5-10.9,0.4-16.3L459.1,35l0-0.1c3.6,10,4.2,20.8,1.6,31.1c-2.8,11-9,20.8-17.8,28c-8.8,7.2-19.7,11.3-31,11.9  c-11.3,0.5-22.5-2.6-32-8.9c-9.4-6.3-16.6-15.5-20.4-26.2c-3.8-10.7-4.1-22.3-0.8-33.2C362,26.8,368.7,17.2,377.8,10.5z"/>
    <path class="st1"
          d="M448.9,17.9l0.1,0.1l-9,14.2c-3.3-4.8-7.6-8.9-12.7-11.7V53c0,9.9-8.1,18-18,18s-18-8.1-18-18  c0-9.9,8.1-18,18-18c3.7,0,7.2,1.1,10.1,3.1V1C431,3.3,441.4,9.4,448.9,17.9z"/>
    <path class="st2"
          d="M40.4,92.7V79.3c0-10.1-1.2-13.1-5.1-21.5L15.1,13.6H0.7l26,56.4v22.7H40.4z M49.4,51.9l16.9-38.2h-14  L35.4,51.9H49.4z M193.3,93.9c6.4,0,11.6-3,15.3-8.5l0.7,7.4h12.5V13.6h-13.5v28.6c-3.4-5.1-8.4-7.8-14.4-7.8  c-13.1,0-22.2,11.1-22.2,30.2C171.7,83.4,180.5,93.9,193.3,93.9z M276.5,88.9V77.8c-4.2,2.8-11.3,5.4-17.9,5.4  c-9.9,0-13.7-4.7-14.2-14.2H277v-7.2c0-19.9-8.8-27.4-22.3-27.4c-16.5,0-24.3,12.6-24.3,29.9c0,19.9,9.8,29.6,27.1,29.6  C266.1,93.9,272.5,91.6,276.5,88.9z M130.7,51.6c2.5-3.1,6.5-5.7,11.4-5.7c4.8,0,6.9,2.1,6.9,6.4v40.4h13.5V51  c0-11.4-4.5-16.4-15.6-16.4c-8.1,0-12.8,3-15.6,5.7h-0.7l-0.3-4.8h-13.2v57.2h13.5L130.7,51.6L130.7,51.6z M106.1,53.7  c0-13.9-7.1-19.1-21.4-19.1c-8.9,0-16,3.8-20.1,6.7V53c4.3-3.5,10.9-7.6,18.6-7.6c6.5,0,9.4,2.3,9.4,8.4v3.6h-2.2  c-20.7,0-29.9,6.7-29.9,18.7c0,11.1,7.1,17.4,17.5,17.4c8,0,11.4-2.6,14-5.4h0.6c0.1,1.5,0.6,3.4,1,4.5h13.2  c-0.5-4.7-0.7-9.4-0.7-14L106.1,53.7L106.1,53.7z M318.1,92.7h15.3l-18.7-29.5l16.1-27.7h-13.5l-9.8,17.3l-10.9-17.3h-15.3  l17.3,27.4l-18,29.8h13.8l11.5-19.4L318.1,92.7z M197.3,45c7.3,0,10.9,5.8,10.9,19c0,13.3-3.9,19.1-11.5,19.1  c-7.4,0-11.1-5.7-11.1-18.7C185.7,51,189.5,45,197.3,45z M254.5,45c6.7,0,8.8,5.6,8.8,12.7v1.1h-18.9C244.7,49.8,248,45,254.5,45z   M92.6,79.1c-1.7,2.5-4.9,4.5-9.7,4.5c-5.7,0-8.5-3.3-8.5-8.3c0-6.6,4.7-8.9,16.3-8.9h1.9V79.1z"/>
    <path class="st2"
          d="M518.6,92.7h11.9l16.3-60.2v60.2h13.6V13h-18.6l-16.1,59.1L509.7,13h-18.8v79.7h11.4V32.5L518.6,92.7z"/>
    <path class="st2"
          d="M603.4,76.4c-2.5,3.1-6.5,5.7-11.5,5.7c-4.8,0-7-2.1-7-6.4V35h-13.6v42.1c0,11.5,4.6,16.5,15.7,16.5  c8.1,0,13-3,15.7-5.7h0.7l0.3,4.8h13.3V35h-13.6V76.4z"/>
    <path class="st2"
          d="M646.4,93.9c13.5,0,22.4-5.6,22.4-19.3c0-10.1-7-15.4-18.6-17c-5.7-0.8-10.6-1.5-10.6-7c0-4.4,3.4-6.3,9.9-6.3  c8.8,0,14.5,3.2,15.4,3.9V37.1c0,0-5.4-3.2-16.7-3.2c-14,0-21.8,7.3-21.8,17.3c0,10.2,5.8,15.5,17.1,17c7.9,1,12.2,3.2,12.2,8.3  c0,4.5-3.6,6.7-11.4,6.7c-10,0-16.4-5.2-17.5-5.7v11.1C626.6,88.5,633.1,93.9,646.4,93.9z"/>
    <path class="st2"
          d="M684.1,27.9c4.5,0,8-3.1,8-8c0-4.8-3.6-8-8-8c-4.5,0-7.9,3.2-7.9,8C676.2,24.8,679.6,27.9,684.1,27.9z   M677.3,35v57.7H691V35H677.3z"/>
    <path class="st2"
          d="M727.2,93.9c6.3,0,10.8-1.1,14.1-3.6V79.2c-3.4,2.4-7.6,3.9-13.3,3.9c-9.7,0-13.8-7.6-13.8-19.5  c0-12.5,4.9-18.9,13.9-18.9c5.3,0,10.4,1.8,13.2,3.6V36.6c-2.9-1.6-7.9-2.8-14.7-2.8c-17.4,0-26.5,12.5-26.5,30.1  C700.1,83.2,708.9,93.9,727.2,93.9z"/>
</svg>
